<svg width="191" height="212" viewBox="0 0 191 212" fill="none" xmlns="http://www.w3.org/2000/svg">
<path fill-rule="evenodd" clip-rule="evenodd" d="M31.4636 0.36471C27.5987 1.05932 23.6846 2.42173 19.5544 4.50873C14.4185 7.10367 7.52221 13.9247 4.42977 19.4674C-0.0524231 27.5014 0.332727 18.4441 0.156735 119.877L0 210.188H6.35017H12.7003L13.0497 201.906C13.2417 197.351 13.4 157.119 13.4011 112.501L13.4027 31.3773L15.36 27.3232C18.9863 19.8107 25.9683 14.6487 34.195 13.3973C44.1848 11.8771 54.6272 17.3341 59.2244 26.4777C60.8426 29.6957 61.2079 31.0792 61.5268 35.1932C61.7349 37.8828 61.8103 40.2606 61.6942 40.4777C61.5781 40.6944 60.2338 40.8763 58.7066 40.881C55.0092 40.8931 49.1436 42.1514 46.0951 43.5864C42.9176 45.0819 36.9429 50.9548 35.4216 54.0782C33.7906 57.4266 32.6806 62.9693 32.6693 67.8206L32.6602 71.8957H68.7681H104.876L104.867 67.5577C104.848 58.8316 102.549 52.6153 97.6154 47.9565C92.533 43.1563 86.3973 40.9131 78.2632 40.8826L75.4548 40.8721V37.4322C75.4548 30.3972 72.7266 21.933 68.5231 15.9275C64.2415 9.81062 56.4845 4.14328 49.0495 1.7003C44.3983 0.171732 36.0603 -0.46136 31.4636 0.36471ZM77.327 86.0646C66.5984 87.1215 56.7049 92.864 50.7409 101.496C47.0574 106.829 44.4961 113.637 45.175 116.294C45.4328 117.304 45.9565 117.667 47.5089 117.913C60.0814 119.898 66.6765 123.24 71.9686 130.307C74.8086 134.099 76.3107 137.866 77.564 144.339C78.0829 147.02 78.6831 149.386 78.8976 149.597C79.4454 150.135 132.458 150.382 138.266 149.873C143.717 149.395 143.311 149.853 144.399 142.965C145.599 135.373 150.541 127.595 156.757 123.514C160.933 120.774 164.619 119.444 170.724 118.479C173.437 118.049 175.866 117.39 176.121 117.013C177.32 115.249 174.705 107.019 171.358 102.017C170.348 100.508 167.6 97.4965 165.252 95.3244C160.486 90.918 156.53 88.7852 149.969 87.0852C146.027 86.0641 144.042 85.9952 113.702 85.8243C96.0496 85.7249 79.6807 85.8332 77.327 86.0646ZM43.743 130.813C39.2158 131.913 34.7925 135.407 32.1259 139.989L30.5205 142.747V153.873C30.5205 163.758 30.6452 165.365 31.6364 168.27C34.7299 177.332 40.8201 184.674 49.1725 189.409C52.0044 191.015 53.781 192.384 54.0987 193.204C54.4459 194.102 54.2731 196.002 53.5237 199.529C52.9347 202.302 52.4527 205.448 52.4527 206.519C52.4527 210.435 56.4615 213.075 60.1215 211.572C62.679 210.521 63.361 209.304 65.275 202.371C66.1823 199.083 67.15 195.98 67.4249 195.475C67.6999 194.97 68.8366 194.409 69.9514 194.228C71.0657 194.047 90.2157 193.896 112.507 193.893L153.035 193.887L154.059 195.541C154.622 196.451 155.494 198.877 155.998 200.931C157.285 206.183 158.751 209.888 159.969 210.972C161.348 212.198 164.759 212.249 166.589 211.071C167.387 210.557 168.42 209.354 168.884 208.397C169.668 206.78 169.648 206.322 168.595 201.916C167.167 195.936 167.132 193.138 168.471 191.915C169.025 191.409 171.011 190.173 172.884 189.168C177.972 186.438 184.904 179.39 187.379 174.431C190.568 168.041 191 165.577 191 153.781C191 143.705 190.953 143.245 189.647 140.53C187.942 136.988 184.856 133.838 181.408 132.12C179.108 130.975 178.035 130.79 173.766 130.8C170.054 130.808 168.26 131.059 166.661 131.794C159.703 134.991 156.601 140.073 155.777 149.624C155.244 155.814 154.192 158.182 150.925 160.551L148.473 162.327L109.958 162.201L71.4428 162.075L69.5288 160.905C66.8563 159.271 66.3005 157.727 65.7736 150.471C65.52 146.982 64.9482 143.111 64.5026 141.869C62.9422 137.522 59.4052 133.838 54.8599 131.827C52.2478 130.67 46.4882 130.145 43.743 130.813Z" fill="#325052"/>
</svg>
